<svg width="77" height="77" viewBox="0 0 77 77" fill="none" xmlns="http://www.w3.org/2000/svg">
<g opacity="0.1">
<path fill-rule="evenodd" clip-rule="evenodd" d="M54.0616 18.3401C51.9515 16.7795 51.5488 16.7327 50.4049 17.9141C49.1302 19.2307 47.2368 22.3078 44.5134 27.4891C42.4418 31.4305 41.8751 32.085 40.5593 32.0554C38.6556 32.0125 38.4414 31.247 39.0811 26.7691C40.7901 14.8033 41.0493 10.937 40.1995 10.0872C39.0136 8.90132 31.8898 8.97264 30.3335 10.1858C29.2635 11.0199 29.9705 14.1933 33.6668 25.1453C35.1153 29.4376 35.2611 30.3705 34.588 31.0435C33.71 31.9216 32.1215 30.8059 29.8923 27.7455C26.215 22.6971 21.9518 17.784 20.6792 17.1281C19.5302 16.5358 17.705 17.9342 15.128 21.3811C11.9037 25.6942 12.0096 25.8267 22.4536 30.5381C29.9386 33.9146 30.1632 34.0503 30.6624 35.5C31.4042 37.6542 29.3751 38.5648 24.9348 38.0705C17.294 37.22 12.4251 37.2188 11.5767 38.0672C10.6269 39.0171 10.7185 41.9011 11.8168 45.6349C12.9845 49.6042 13.5456 49.7379 18.5836 47.2485C28.2594 42.4678 32.4526 41.6671 34.0093 44.3032C34.7363 45.5343 34.36 46.6243 32.2666 49.3507C30.7805 51.2863 26.3025 57.902 25.6974 59.0561C24.4725 61.3926 25.8938 62.8633 31.021 64.5643C34.7376 65.7973 35.7459 65.3823 35.9415 62.5389C36.0608 60.8029 37.1366 51.4625 37.3413 50.3856C38.191 45.9136 40.9366 46.1117 42.0525 50.7253C42.7469 53.5961 45.4181 62.8937 45.8358 63.894C46.1328 64.6049 46.7832 65.2854 47.3484 65.4767C49.2132 66.1077 55.8757 62.4897 55.891 60.8379C55.9023 59.6499 53.7517 56.8519 48.859 51.6881C43.5003 46.0327 42.9126 45.1384 43.9032 44.1478C44.6445 43.4064 45.8143 43.5035 48.8581 44.5588C51.3244 45.4139 60.9813 48.1641 62.9337 48.5674C64.8778 48.9688 65.8908 47.568 66.4839 43.6578C66.9939 40.2948 66.4736 38.8752 64.5885 38.486C63.9508 38.3545 56.0724 38.2847 50.009 38.3571C47.4951 38.387 46.5416 38.2133 45.9444 37.6162C44.5144 36.1862 45.7795 34.4522 50.5762 31.2681C55.3244 28.1161 58.5119 25.6432 59.0795 24.6716C59.6231 23.7409 57.1574 20.6296 54.0616 18.3401ZM42.0352 36.8647C42.7647 38.4066 42.5312 40.1749 41.4322 41.4322C38.3113 45.0022 32.2523 41.704 33.6848 37.2149C34.9926 33.1164 40.1594 32.8997 42.0352 36.8647Z" fill="black"/>
</g>
</svg>
